<svg xmlns="http://www.w3.org/2000/svg" xmlns:xlink="http://www.w3.org/1999/xlink" width="250" zoomAndPan="magnify" viewBox="0 0 187.5 112.499997" height="150" preserveAspectRatio="xMidYMid meet" version="1.0"><defs><g/><clipPath id="id1"><path d="M 66.839844 5.710938 L 100 5.710938 L 100 79 L 66.839844 79 Z M 66.839844 5.710938 " clip-rule="nonzero"/></clipPath><clipPath id="id2"><path d="M 114 46 L 120.742188 46 L 120.742188 51 L 114 51 Z M 114 46 " clip-rule="nonzero"/></clipPath><clipPath id="id3"><path d="M 74 8 L 120.742188 8 L 120.742188 79.082031 L 74 79.082031 Z M 74 8 " clip-rule="nonzero"/></clipPath></defs><g clip-path="url(#id1)"><path fill="#ffd5e0" d="M 70.828125 69.746094 C 66.425781 63.539062 66.296875 55.308594 67.464844 47.816406 C 68.628906 40.324219 70.921875 32.921875 70.742188 25.339844 C 70.648438 20.328125 69.609375 14.75 72.632812 10.738281 C 75.132812 7.410156 79.628906 6.347656 83.773438 5.894531 C 86.34375 5.613281 89.113281 5.515625 91.382812 6.761719 C 92.820312 7.539062 93.929688 8.820312 94.894531 10.144531 C 101.003906 18.585938 101.558594 31.164062 94.820312 39.121094 C 92.617188 41.714844 89.800781 43.722656 87.410156 46.152344 C 85.019531 48.582031 82.988281 51.671875 83.007812 55.078125 C 83.007812 58.351562 84.914062 61.285156 86.519531 64.144531 C 88.457031 67.511719 90.019531 71.046875 91.203125 74.75 C 92.488281 78.984375 90.769531 79.125 86.796875 78.578125 C 80.636719 77.722656 74.496094 74.914062 70.828125 69.746094 Z M 70.828125 69.746094 " fill-opacity="1" fill-rule="nonzero"/></g><path fill="#020202" d="M 105.851562 45.609375 C 102.8125 43.570312 99.507812 42.148438 95.9375 41.339844 C 93.574219 40.804688 91.101562 40.5625 88.71875 41.027344 C 86.339844 41.488281 84.039062 42.71875 82.636719 44.679688 C 82.042969 45.554688 81.5625 46.488281 81.203125 47.484375 C 81.175781 47.539062 81.1875 47.585938 81.238281 47.621094 C 81.292969 47.65625 81.339844 47.652344 81.382812 47.605469 C 81.8125 47.207031 82.308594 46.921875 82.871094 46.757812 C 83.054688 46.699219 83.207031 46.75 83.320312 46.902344 C 83.4375 47.054688 83.441406 47.210938 83.335938 47.371094 C 82.269531 49.074219 81.621094 50.921875 81.386719 52.917969 C 81.378906 52.949219 81.390625 52.96875 81.425781 52.976562 C 81.460938 52.984375 81.480469 52.972656 81.488281 52.9375 C 81.613281 52.636719 81.78125 52.359375 81.996094 52.113281 C 82.175781 51.902344 82.390625 51.847656 82.648438 51.957031 C 82.90625 52.0625 83.023438 52.253906 82.996094 52.527344 L 82.523438 58.675781 C 82.523438 58.710938 82.539062 58.730469 82.570312 58.738281 C 82.605469 58.746094 82.628906 58.738281 82.644531 58.707031 C 82.722656 58.542969 82.851562 58.480469 83.027344 58.523438 C 83.203125 58.566406 83.289062 58.679688 83.277344 58.859375 C 83.253906 59.542969 83.132812 60.234375 83.050781 60.917969 C 82.9375 61.914062 82.9375 62.992188 83.441406 63.847656 C 83.453125 63.863281 83.46875 63.867188 83.484375 63.863281 C 83.503906 63.855469 83.511719 63.84375 83.511719 63.824219 C 83.5 63.65625 83.574219 63.550781 83.742188 63.507812 C 83.90625 63.460938 84.023438 63.515625 84.097656 63.667969 C 84.855469 65.199219 85.660156 66.703125 86.515625 68.179688 C 87.296875 69.507812 88.28125 70.945312 89.710938 71.363281 C 89.835938 71.402344 89.949219 71.386719 90.054688 71.308594 C 90.160156 71.234375 90.214844 71.132812 90.21875 71.003906 L 90.21875 70.980469 C 90.222656 70.871094 90.277344 70.796875 90.378906 70.757812 C 90.484375 70.71875 90.574219 70.742188 90.648438 70.824219 C 91.027344 71.253906 91.425781 71.664062 91.84375 72.050781 C 92.121094 72.378906 92.476562 72.5625 92.902344 72.605469 C 93.199219 72.585938 93.402344 72.433594 93.507812 72.15625 C 93.535156 72.078125 93.585938 72.019531 93.664062 71.980469 C 93.738281 71.945312 93.816406 71.941406 93.898438 71.96875 C 95.375 72.574219 96.910156 72.984375 98.492188 73.203125 C 98.617188 73.207031 98.71875 73.160156 98.796875 73.066406 C 98.878906 72.972656 98.90625 72.863281 98.882812 72.742188 C 98.882812 72.679688 98.847656 72.613281 98.828125 72.550781 C 98.800781 72.480469 98.8125 72.417969 98.863281 72.363281 C 98.910156 72.304688 98.972656 72.28125 99.046875 72.296875 C 99.667969 72.390625 100.289062 72.386719 100.910156 72.285156 C 101.53125 72.179688 102.121094 71.984375 102.675781 71.691406 C 103.234375 71.398438 103.730469 71.027344 104.164062 70.574219 C 104.601562 70.121094 104.953125 69.613281 105.226562 69.046875 C 105.539062 68.300781 105.734375 67.523438 105.820312 66.71875 C 105.960938 65.601562 105.96875 64.390625 105.429688 63.421875 C 104.796875 62.316406 103.535156 61.691406 102.28125 61.4375 C 101.023438 61.1875 99.730469 61.25 98.449219 61.167969 C 94.269531 60.890625 89.546875 59.226562 87.839844 55.027344 C 87.628906 54.53125 87.609375 54.023438 87.785156 53.515625 C 88.703125 51.003906 93.980469 51.039062 96.125 50.796875 C 99.808594 50.398438 103.4375 50.667969 107.019531 51.613281 C 108.804688 52.082031 110.582031 52.726562 112.425781 52.679688 C 112.710938 52.679688 113.027344 52.636719 113.121094 52.265625 C 113.160156 52.089844 113.136719 51.921875 113.058594 51.757812 C 111.703125 48.878906 108.464844 47.371094 105.851562 45.609375 Z M 105.851562 45.609375 " fill-opacity="1" fill-rule="nonzero"/><g clip-path="url(#id2)"><path fill="#ffffff" d="M 117.554688 50.242188 C 117.40625 50.027344 117.207031 49.871094 116.964844 49.773438 C 116.332031 49.457031 115.34375 49.28125 114.976562 48.609375 C 114.890625 48.441406 114.835938 48.261719 114.820312 48.074219 C 114.800781 47.886719 114.820312 47.703125 114.871094 47.523438 C 114.925781 47.339844 115.011719 47.175781 115.128906 47.027344 C 115.25 46.882812 115.390625 46.761719 115.554688 46.667969 C 115.863281 46.492188 116.195312 46.382812 116.546875 46.34375 C 117.316406 46.246094 118.078125 46.300781 118.828125 46.496094 C 119.273438 46.578125 119.683594 46.75 120.050781 47.011719 C 120.441406 47.304688 120.609375 47.695312 120.550781 48.179688 C 120.4375 48.59375 120.1875 48.898438 119.804688 49.09375 C 119.453125 49.308594 119.0625 49.441406 118.722656 49.667969 C 118.601562 49.742188 118.5 49.835938 118.417969 49.953125 C 118.351562 50.089844 118.304688 50.234375 118.28125 50.386719 C 118.265625 50.539062 118.214844 50.683594 118.128906 50.8125 C 118.03125 50.953125 117.769531 51.09375 117.691406 50.878906 C 117.617188 50.664062 117.65625 50.457031 117.554688 50.242188 Z M 117.554688 50.242188 " fill-opacity="1" fill-rule="nonzero"/></g><g clip-path="url(#id3)"><path fill="#ffffff" d="M 95.859375 52.527344 L 95.664062 52.558594 C 95.691406 52.789062 95.804688 52.96875 95.996094 53.101562 C 96.105469 53.167969 96.226562 53.203125 96.359375 53.199219 C 96.5625 53.1875 96.757812 53.140625 96.945312 53.054688 C 98.726562 52.292969 100.585938 51.875 102.523438 51.796875 L 102.613281 51.796875 C 103.1875 51.804688 103.761719 51.84375 104.332031 51.914062 C 106.453125 52.15625 108.535156 52.59375 110.574219 53.226562 C 111.601562 53.609375 112.65625 53.867188 113.746094 54.003906 C 113.859375 54.003906 113.976562 54.003906 114.089844 54.003906 C 115.167969 54.046875 116.09375 53.691406 116.863281 52.933594 C 116.949219 52.839844 117.011719 52.726562 117.046875 52.601562 C 117.070312 52.523438 117.105469 52.453125 117.15625 52.386719 C 117.203125 52.332031 117.265625 52.292969 117.339844 52.277344 C 118.003906 52.125 118.644531 51.894531 119.253906 51.585938 C 119.535156 51.414062 119.769531 51.191406 119.960938 50.921875 C 120.15625 50.644531 120.257812 50.339844 120.265625 50 L 120.265625 49.914062 C 120.265625 49.71875 120.210938 49.523438 120.210938 49.378906 C 120.207031 49.328125 120.214844 49.273438 120.230469 49.222656 C 120.242188 49.183594 120.261719 49.152344 120.292969 49.125 C 120.324219 49.089844 120.414062 49.054688 120.515625 48.957031 C 120.601562 48.871094 120.65625 48.769531 120.683594 48.652344 C 120.710938 48.558594 120.722656 48.460938 120.726562 48.363281 C 120.726562 48.214844 120.75 48.058594 120.75 47.902344 C 120.769531 47.570312 120.691406 47.261719 120.523438 46.980469 L 120.472656 46.898438 L 120.523438 46.980469 C 120.355469 46.730469 120.132812 46.554688 119.851562 46.445312 C 119.597656 46.351562 119.339844 46.289062 119.070312 46.265625 C 118.628906 46.222656 118.183594 46.203125 117.738281 46.210938 L 117.375 46.210938 C 116.496094 46.246094 115.75 46.574219 115.132812 47.191406 C 114.988281 47.308594 114.886719 47.453125 114.820312 47.625 C 114.800781 47.695312 114.792969 47.761719 114.789062 47.832031 C 114.800781 48.007812 114.84375 48.171875 114.921875 48.328125 L 114.949219 48.386719 L 114.921875 48.328125 C 115.226562 48.9375 115.691406 49.382812 116.316406 49.660156 C 116.652344 49.796875 116.976562 49.960938 117.285156 50.15625 C 117.417969 50.246094 117.53125 50.355469 117.625 50.488281 C 117.707031 50.617188 117.75 50.757812 117.75 50.910156 L 117.941406 50.910156 L 117.765625 50.910156 L 117.941406 50.910156 L 117.765625 50.910156 L 117.707031 50.882812 L 117.683594 50.921875 L 117.730469 50.921875 L 117.707031 50.882812 L 117.683594 50.921875 L 117.710938 50.964844 L 117.734375 50.921875 L 117.683594 50.921875 L 117.710938 50.964844 C 117.984375 50.816406 118.273438 50.714844 118.578125 50.652344 C 118.9375 50.585938 119.257812 50.4375 119.542969 50.214844 C 119.835938 49.9375 120.011719 49.597656 120.082031 49.203125 C 120.125 48.992188 120.148438 48.78125 120.148438 48.566406 C 120.132812 47.878906 119.960938 47.230469 119.632812 46.625 C 119.203125 45.875 118.699219 45.179688 118.109375 44.546875 C 117 43.25 115.671875 42.003906 114.746094 40.664062 C 114.546875 40.34375 114.457031 39.992188 114.480469 39.613281 C 114.480469 39.171875 114.5625 38.695312 114.589844 38.238281 C 114.648438 37.3125 114.703125 36.386719 114.753906 35.460938 L 114.753906 35.394531 C 114.765625 35.125 114.660156 34.910156 114.445312 34.75 C 114.242188 34.621094 114.023438 34.5625 113.785156 34.574219 C 113.332031 34.570312 112.933594 34.714844 112.582031 35 C 112.363281 35.21875 112.210938 35.476562 112.125 35.773438 C 112.035156 36.085938 111.988281 36.402344 111.988281 36.726562 C 111.988281 36.988281 112.019531 37.25 112.089844 37.503906 C 112.160156 37.742188 112.285156 37.953125 112.457031 38.132812 C 112.648438 38.328125 112.882812 38.429688 113.15625 38.433594 C 113.246094 38.433594 113.335938 38.421875 113.421875 38.394531 C 113.71875 38.308594 113.941406 38.136719 114.097656 37.871094 C 114.265625 37.578125 114.34375 37.257812 114.335938 36.921875 C 114.332031 36.691406 114.3125 36.46875 114.273438 36.246094 C 114.253906 36.101562 114.21875 35.964844 114.164062 35.832031 C 114.089844 35.667969 113.972656 35.546875 113.804688 35.476562 L 113.625 35.402344 L 113.804688 35.476562 C 113.722656 35.445312 113.636719 35.429688 113.550781 35.429688 C 113.488281 35.429688 113.425781 35.4375 113.363281 35.453125 C 113.15625 35.511719 113 35.628906 112.886719 35.808594 C 112.785156 35.980469 112.734375 36.160156 112.734375 36.355469 C 112.734375 36.5 112.765625 36.636719 112.824219 36.769531 L 112.886719 36.90625 L 113.039062 36.878906 C 113.222656 36.847656 113.355469 36.746094 113.429688 36.574219 C 113.511719 36.367188 113.546875 36.152344 113.539062 35.929688 C 113.53125 35.765625 113.542969 35.605469 113.578125 35.445312 C 113.644531 35.28125 113.742188 35.132812 113.863281 35.003906 C 114.003906 34.847656 114.132812 34.683594 114.253906 34.511719 C 114.46875 34.171875 114.574219 33.800781 114.566406 33.398438 C 114.539062 32.769531 114.378906 32.171875 114.078125 31.617188 C 113.46875 30.46875 112.753906 29.390625 111.933594 28.382812 C 111.183594 27.390625 110.335938 26.300781 109.066406 25.894531 C 108.847656 25.824219 108.617188 25.785156 108.386719 25.78125 C 108.179688 25.777344 107.984375 25.816406 107.796875 25.898438 C 107.601562 25.980469 107.445312 26.105469 107.324219 26.277344 C 107.203125 26.449219 107.136719 26.640625 107.128906 26.851562 C 107.132812 26.988281 107.164062 27.117188 107.230469 27.238281 C 107.375 27.507812 107.597656 27.644531 107.90625 27.648438 C 108.046875 27.652344 108.175781 27.613281 108.296875 27.535156 L 108.328125 27.515625 L 108.296875 27.535156 C 108.457031 27.429688 108.5625 27.28125 108.613281 27.09375 C 108.652344 26.941406 108.675781 26.785156 108.679688 26.625 L 108.773438 24.601562 C 108.917969 21.464844 110.289062 18.515625 112.085938 15.894531 C 113.886719 13.273438 116.625 11.238281 119.734375 10.820312 C 119.800781 10.816406 119.867188 10.816406 119.9375 10.820312 C 120.03125 10.8125 120.117188 10.835938 120.195312 10.890625 C 120.273438 10.984375 120.316406 11.097656 120.320312 11.222656 C 120.359375 11.480469 120.378906 11.738281 120.378906 12 C 120.335938 13.210938 120.027344 14.347656 119.445312 15.414062 C 118.78125 16.71875 117.882812 17.90625 117.078125 19.171875 C 116.320312 20.300781 115.714844 21.507812 115.261719 22.789062 C 114.628906 24.753906 114.503906 26.832031 113.703125 28.65625 C 113.5 29.210938 113.171875 29.679688 112.71875 30.0625 C 112.304688 30.355469 111.84375 30.53125 111.335938 30.578125 C 111.140625 30.605469 110.945312 30.617188 110.75 30.617188 C 109.03125 30.617188 107.339844 29.648438 106.25 28.289062 C 105.03125 26.761719 104.457031 24.796875 104.222656 22.820312 C 104.164062 22.351562 104.132812 21.875 104.128906 21.402344 C 104.125 20.941406 104.167969 20.488281 104.253906 20.039062 C 104.613281 18.613281 105.292969 17.363281 106.292969 16.28125 C 107.109375 15.34375 108.015625 14.503906 109.011719 13.757812 C 110.007812 13.011719 111.070312 12.378906 112.203125 11.859375 C 113.335938 11.339844 114.511719 10.945312 115.726562 10.675781 C 116.941406 10.402344 118.175781 10.265625 119.421875 10.257812 C 119.605469 10.253906 119.761719 10.316406 119.890625 10.449219 C 120.007812 10.574219 120.066406 10.722656 120.070312 10.894531 C 120.070312 11.023438 120.03125 11.140625 119.957031 11.25 C 119.507812 11.835938 118.96875 12.320312 118.332031 12.699219 C 116.105469 14.15625 113.921875 15.679688 111.785156 17.269531 C 110.8125 18.046875 109.769531 18.722656 108.664062 19.292969 C 107.828125 19.707031 106.949219 19.925781 106.015625 19.945312 C 105.722656 19.945312 105.433594 19.917969 105.144531 19.859375 C 104.257812 19.683594 103.417969 19.195312 102.472656 18.953125 C 102.042969 18.839844 101.609375 18.785156 101.167969 18.78125 C 100.238281 18.78125 99.367188 19.007812 98.554688 19.464844 C 98.277344 19.605469 98.042969 19.800781 97.851562 20.050781 C 97.65625 20.351562 97.566406 20.683594 97.578125 21.039062 C 97.570312 21.148438 97.570312 21.253906 97.578125 21.363281 C 97.625 21.753906 97.730469 22.125 97.902344 22.480469 C 98.046875 22.800781 98.292969 22.960938 98.644531 22.957031 C 98.863281 22.960938 99.054688 22.886719 99.21875 22.738281 C 99.398438 22.574219 99.488281 22.371094 99.484375 22.128906 L 99.484375 22.089844 C 99.46875 21.847656 99.433594 21.609375 99.375 21.375 C 99.160156 20.65625 98.847656 19.984375 98.441406 19.355469 C 97.46875 17.679688 96.523438 15.972656 95.523438 14.3125 C 95.0625 13.535156 94.742188 12.554688 94.273438 11.632812 C 93.800781 10.714844 93.230469 9.863281 92.242188 9.425781 C 91.605469 9.140625 90.933594 8.996094 90.234375 8.992188 C 89.742188 8.972656 89.269531 9.0625 88.816406 9.253906 C 88.363281 9.445312 87.972656 9.722656 87.644531 10.085938 C 87.03125 10.886719 86.496094 11.742188 86.042969 12.644531 C 84.804688 14.796875 83.3125 16.988281 83.132812 19.628906 C 83.132812 19.8125 83.113281 20.015625 83.113281 20.1875 C 83.132812 21.558594 83.445312 22.859375 84.050781 24.089844 C 84.660156 25.320312 85.503906 26.363281 86.585938 27.214844 C 87.410156 27.859375 88.316406 28.355469 89.304688 28.695312 C 90.296875 29.039062 91.316406 29.210938 92.363281 29.210938 C 92.800781 29.210938 93.230469 29.179688 93.664062 29.117188 C 94.03125 29.082031 94.371094 28.96875 94.683594 28.773438 L 94.761719 28.71875 L 94.683594 28.773438 C 95.179688 28.359375 95.4375 27.832031 95.464844 27.191406 C 95.492188 26.960938 95.503906 26.726562 95.503906 26.492188 C 95.476562 25.539062 95.320312 24.609375 95.035156 23.699219 C 94.464844 21.683594 93.667969 19.757812 92.644531 17.929688 C 92.027344 16.710938 91.203125 15.660156 90.167969 14.769531 C 89.902344 14.550781 89.597656 14.421875 89.253906 14.382812 C 89.199219 14.378906 89.144531 14.378906 89.089844 14.382812 C 88.609375 14.386719 88.230469 14.585938 87.960938 14.984375 C 87.71875 15.339844 87.558594 15.726562 87.480469 16.148438 C 87.335938 16.824219 87.261719 17.507812 87.265625 18.199219 C 87.304688 19.703125 87.515625 21.179688 87.90625 22.632812 C 88.421875 24.734375 89.074219 26.8125 89.132812 28.933594 C 89.132812 29.023438 89.132812 29.113281 89.132812 29.207031 C 89.132812 30.027344 88.984375 30.902344 88.421875 31.441406 C 87.898438 31.949219 86.859375 32.261719 85.910156 32.257812 C 85.375 32.277344 84.871094 32.164062 84.394531 31.914062 C 83.992188 31.65625 83.691406 31.308594 83.492188 30.875 C 82.789062 29.460938 82.589844 27.796875 82.589844 26.164062 C 82.589844 25.578125 82.613281 25 82.652344 24.433594 C 82.820312 21.773438 83.417969 19.214844 84.457031 16.761719 C 84.945312 15.542969 85.558594 14.386719 86.285156 13.289062 C 86.996094 12.191406 87.953125 11.375 89.15625 10.84375 C 89.503906 10.691406 89.867188 10.613281 90.246094 10.605469 C 90.65625 10.617188 91.039062 10.730469 91.394531 10.933594 C 91.75 11.140625 92.035156 11.417969 92.25 11.769531 C 93.308594 13.222656 93.941406 14.996094 94.683594 16.667969 C 95.460938 18.398438 96.089844 20.179688 96.574219 22.015625 C 96.851562 22.984375 97.007812 23.976562 97.035156 24.988281 C 97.039062 25.546875 96.964844 26.097656 96.8125 26.636719 C 96.542969 27.453125 96.152344 28.210938 95.640625 28.90625 C 94.53125 30.5 93.246094 31.9375 91.785156 33.21875 C 90.515625 34.382812 89.175781 35.464844 87.769531 36.457031 C 87.097656 36.929688 86.398438 37.355469 85.667969 37.738281 C 84.957031 38.132812 84.195312 38.355469 83.378906 38.398438 L 83.222656 38.398438 C 82.933594 38.382812 82.675781 38.289062 82.445312 38.117188 C 82.21875 37.960938 82.105469 37.746094 82.101562 37.476562 L 82.101562 37.382812 C 82.125 37.167969 82.226562 37 82.402344 36.875 C 82.589844 36.734375 82.796875 36.628906 83.019531 36.558594 C 84.171875 36.148438 85.355469 35.957031 86.578125 35.988281 C 87.796875 36.019531 88.972656 36.269531 90.097656 36.742188 C 92.070312 37.570312 93.757812 39.070312 95.8125 39.929688 C 97.070312 40.417969 98.371094 40.738281 99.714844 40.886719 C 100.515625 41 101.320312 41.0625 102.132812 41.070312 C 103.390625 41.101562 104.589844 40.863281 105.738281 40.347656 L 105.914062 40.265625 L 105.738281 40.347656 C 106.421875 40.015625 107.03125 39.570312 107.6875 39.328125 C 107.828125 39.277344 107.902344 39.175781 107.902344 39.023438 C 107.898438 38.90625 107.847656 38.8125 107.75 38.746094 C 106.683594 38.113281 105.832031 37.269531 105.191406 36.214844 C 105.039062 35.933594 104.910156 35.613281 104.746094 35.304688 C 104.585938 34.976562 104.355469 34.703125 104.054688 34.492188 C 103.699219 34.285156 103.316406 34.179688 102.910156 34.175781 C 102.792969 34.175781 102.671875 34.175781 102.550781 34.175781 C 101.78125 34.175781 101.042969 34.320312 100.332031 34.605469 C 99.554688 34.921875 98.835938 35.382812 98.121094 35.382812 C 98.195312 35.339844 98.273438 35.320312 98.355469 35.316406 L 98.402344 35.316406 C 98.660156 35.363281 98.878906 35.476562 99.0625 35.660156 C 99.269531 35.863281 99.460938 36.082031 99.640625 36.316406 C 99.808594 36.535156 100 36.730469 100.214844 36.902344 C 100.445312 37.085938 100.703125 37.199219 100.996094 37.238281 L 101.035156 37.238281 C 101.128906 37.238281 101.207031 37.203125 101.273438 37.140625 C 101.339844 37.074219 101.375 36.996094 101.375 36.90625 C 101.375 36.855469 101.363281 36.808594 101.34375 36.761719 C 101.226562 36.523438 101.167969 36.273438 101.167969 36.007812 C 101.167969 35.90625 101.179688 35.804688 101.207031 35.707031 C 101.257812 35.507812 101.359375 35.34375 101.511719 35.207031 C 101.652344 35.082031 101.816406 35.019531 102.003906 35.011719 L 102.003906 34.820312 L 101.816406 34.777344 C 101.734375 35.097656 101.6875 35.425781 101.675781 35.757812 C 101.675781 35.886719 101.6875 36.015625 101.714844 36.144531 C 101.777344 36.421875 101.90625 36.660156 102.105469 36.863281 C 102.242188 37.015625 102.410156 37.117188 102.613281 37.167969 C 102.8125 37.21875 103.011719 37.210938 103.203125 37.140625 C 103.449219 37.0625 103.636719 36.914062 103.773438 36.699219 C 103.921875 36.484375 103.996094 36.246094 104 35.984375 C 103.992188 35.710938 103.925781 35.453125 103.796875 35.207031 L 103.621094 35.292969 L 103.738281 35.449219 L 103.792969 35.410156 L 103.675781 35.253906 L 103.539062 35.390625 C 103.886719 35.691406 104.136719 36.054688 104.289062 36.484375 C 104.316406 36.585938 104.332031 36.691406 104.332031 36.796875 C 104.339844 36.917969 104.324219 37.035156 104.289062 37.148438 C 104.21875 37.359375 104.082031 37.507812 103.875 37.59375 C 103.664062 37.679688 103.445312 37.726562 103.214844 37.738281 C 102.96875 37.777344 102.71875 37.800781 102.46875 37.8125 C 102.300781 37.824219 102.148438 37.789062 102.003906 37.703125 L 101.941406 37.792969 L 102.046875 37.792969 L 102.003906 37.703125 L 101.941406 37.792969 L 102.019531 37.859375 L 102.042969 37.792969 L 101.941406 37.792969 L 102.019531 37.859375 L 101.933594 37.785156 L 101.933594 37.925781 L 102.019531 37.886719 L 101.933594 37.8125 L 101.90625 37.910156 L 101.933594 37.910156 L 101.933594 37.808594 L 101.90625 37.90625 C 102.882812 38.214844 103.886719 38.367188 104.914062 38.367188 C 105.179688 38.367188 105.445312 38.367188 105.695312 38.335938 C 105.878906 38.324219 106.0625 38.292969 106.238281 38.234375 C 106.4375 38.171875 106.597656 38.050781 106.714844 37.878906 C 106.816406 37.699219 106.867188 37.503906 106.871094 37.296875 C 106.871094 37.136719 106.871094 36.976562 106.871094 36.820312 C 106.871094 35.652344 106.59375 34.554688 106.039062 33.523438 C 105.703125 32.839844 105.207031 32.296875 104.550781 31.894531 C 103.980469 31.609375 103.375 31.457031 102.738281 31.4375 C 102.515625 31.4375 102.289062 31.414062 102.0625 31.414062 C 100.238281 31.433594 98.523438 31.871094 96.914062 32.726562 C 95.117188 33.691406 93.601562 34.984375 92.367188 36.605469 C 91.746094 37.410156 91.199219 38.253906 90.566406 39 C 89.765625 39.878906 88.894531 40.6875 87.957031 41.417969 C 86.941406 42.269531 86.054688 43.246094 84.988281 43.925781 C 84.011719 44.546875 83.007812 45.140625 81.917969 45.320312 C 81.707031 45.355469 81.496094 45.375 81.285156 45.375 C 80.839844 45.394531 80.414062 45.316406 80.007812 45.136719 C 79.601562 44.960938 79.257812 44.703125 78.972656 44.363281 C 78.628906 43.863281 78.441406 43.308594 78.40625 42.703125 C 78.40625 42.542969 78.378906 42.382812 78.378906 42.226562 C 78.371094 41.832031 78.441406 41.457031 78.589844 41.09375 C 78.796875 40.585938 79.171875 40.265625 79.710938 40.136719 C 79.777344 40.132812 79.839844 40.132812 79.902344 40.136719 C 80.042969 40.136719 80.171875 40.167969 80.292969 40.230469 C 80.441406 40.320312 80.554688 40.441406 80.636719 40.589844 C 80.738281 40.757812 80.820312 40.933594 80.882812 41.113281 C 81.136719 41.871094 81.265625 42.648438 81.273438 43.445312 C 81.277344 43.933594 81.207031 44.414062 81.0625 44.882812 C 80.84375 45.488281 80.558594 46.0625 80.207031 46.605469 C 79.097656 48.496094 77.988281 50.386719 76.878906 52.285156 C 75.382812 54.894531 74.65625 57.699219 74.703125 60.703125 C 74.703125 64.804688 75.960938 68.972656 77.773438 72.554688 C 78.472656 73.996094 79.382812 75.292969 80.503906 76.4375 C 81.660156 77.597656 83.039062 78.375 84.636719 78.765625 C 85.613281 78.988281 86.605469 79.09375 87.609375 79.085938 C 89.605469 79.027344 91.578125 78.78125 93.527344 78.351562 C 96.160156 77.835938 99.136719 77.074219 101.71875 75.75 C 104.300781 74.425781 106.519531 72.539062 107.570312 69.792969 C 108.019531 68.640625 108.246094 67.445312 108.253906 66.207031 C 108.28125 64.699219 107.890625 63.308594 107.082031 62.03125 C 106.648438 61.382812 106.109375 60.835938 105.46875 60.382812 C 104.828125 59.933594 104.128906 59.613281 103.367188 59.425781 C 102.445312 59.175781 101.503906 59.054688 100.542969 59.0625 C 99.027344 59.085938 97.535156 59.285156 96.066406 59.65625 C 94.121094 60.121094 92.226562 60.734375 90.382812 61.496094 C 89.347656 61.863281 88.429688 62.417969 87.632812 63.167969 C 86.785156 64.089844 86.375 65.171875 86.402344 66.421875 C 86.40625 67.699219 86.796875 68.84375 87.574219 69.863281 C 89.058594 71.78125 91.558594 72.671875 93.960938 72.679688 L 93.996094 72.679688 C 95.367188 72.738281 96.621094 72.386719 97.757812 71.621094 C 98.5625 70.996094 99.144531 70.207031 99.507812 69.257812 C 99.839844 68.417969 100.003906 67.546875 100 66.640625 C 99.972656 65.316406 99.664062 64.0625 99.078125 62.871094 C 98.496094 61.683594 97.683594 60.671875 96.652344 59.839844 C 94.535156 58.15625 91.804688 57.410156 89.105469 57.410156 C 88.292969 57.410156 87.488281 57.476562 86.6875 57.609375 C 84.769531 57.867188 83.035156 58.570312 81.484375 59.71875 C 80.707031 60.3125 80.085938 61.035156 79.621094 61.886719 C 79.152344 62.742188 78.878906 63.652344 78.796875 64.621094 C 78.796875 64.679688 78.796875 64.742188 78.796875 64.796875 C 78.796875 65.636719 79.105469 66.347656 79.710938 66.925781 C 80.296875 67.488281 80.984375 67.867188 81.777344 68.058594 C 82.546875 68.246094 83.324219 68.335938 84.117188 68.324219 C 84.910156 68.324219 85.699219 68.257812 86.480469 68.125 C 88.042969 67.859375 89.601562 67.042969 90.359375 65.613281 C 90.75 64.765625 90.964844 63.875 91.007812 62.945312 C 91.109375 61.933594 91.179688 60.917969 91.179688 59.898438 C 91.191406 58.585938 91.050781 57.292969 90.753906 56.015625 C 90.195312 53.746094 88.949219 51.5625 86.972656 50.25 C 86.242188 49.730469 85.429688 49.441406 84.535156 49.382812 L 84.453125 49.382812 C 83.546875 49.40625 82.738281 49.699219 82.039062 50.273438 C 81.332031 50.828125 80.769531 51.5 80.347656 52.292969 C 80.058594 52.789062 79.90625 53.320312 79.878906 53.894531 C 79.875 54.175781 79.9375 54.441406 80.0625 54.695312 C 80.210938 54.964844 80.425781 55.175781 80.699219 55.320312 C 80.992188 55.480469 81.308594 55.566406 81.644531 55.570312 L 81.84375 55.570312 C 82.890625 55.554688 83.902344 55.355469 84.878906 54.972656 C 85.855469 54.589844 86.734375 54.050781 87.515625 53.355469 C 88.308594 52.675781 88.964844 51.878906 89.472656 50.96875 C 89.984375 50.058594 90.320312 49.085938 90.484375 48.058594 C 90.523438 47.765625 90.546875 47.472656 90.550781 47.175781 C 90.558594 46.636719 90.457031 46.117188 90.234375 45.625 C 90.050781 45.230469 89.785156 44.902344 89.433594 44.644531 C 89.082031 44.375 88.683594 44.238281 88.242188 44.230469 C 88 44.230469 87.769531 44.273438 87.546875 44.359375 C 87.320312 44.449219 87.121094 44.574219 86.945312 44.734375 C 86.769531 44.898438 86.628906 45.085938 86.527344 45.300781 C 86.421875 45.515625 86.363281 45.742188 86.34375 45.980469 C 86.355469 46.394531 86.484375 46.765625 86.734375 47.09375 L 86.847656 47.253906 L 86.734375 47.09375 C 87.023438 47.484375 87.402344 47.75 87.867188 47.890625 C 88.304688 48.03125 88.753906 48.121094 89.210938 48.164062 C 90.914062 48.367188 92.621094 48.476562 94.332031 48.488281 C 97.636719 48.488281 100.921875 47.996094 103.742188 46.46875 C 104 46.335938 104.199219 46.140625 104.347656 45.894531 C 104.496094 45.644531 104.570312 45.378906 104.566406 45.089844 C 104.570312 44.75 104.472656 44.4375 104.273438 44.160156 C 104.058594 43.859375 103.769531 43.664062 103.40625 43.570312 C 102.953125 43.460938 102.496094 43.390625 102.03125 43.359375 C 100.648438 43.230469 99.265625 43.167969 97.878906 43.167969 C 97.519531 43.167969 97.15625 43.167969 96.792969 43.167969 C 95.925781 43.191406 94.980469 43.246094 94.199219 43.75 C 93.8125 44.023438 93.515625 44.371094 93.308594 44.792969 C 93.101562 45.214844 93.007812 45.664062 93.027344 46.132812 C 93.023438 46.667969 93.132812 47.179688 93.347656 47.671875 C 93.5625 48.164062 93.871094 48.589844 94.269531 48.949219 C 95.398438 49.847656 96.6875 50.265625 98.132812 50.199219 C 98.550781 50.199219 98.96875 50.171875 99.386719 50.117188 C 99.46875 50.109375 99.535156 50.070312 99.585938 50.003906 C 99.695312 49.875 99.695312 49.746094 99.585938 49.617188 C 99.542969 49.554688 99.488281 49.515625 99.417969 49.496094 C 99.125 49.414062 98.828125 49.375 98.527344 49.375 C 97.820312 49.371094 97.179688 49.578125 96.609375 49.996094 C 96.253906 50.273438 96.007812 50.628906 95.871094 51.058594 C 95.742188 51.457031 95.667969 51.863281 95.652344 52.285156 L 95.652344 52.359375 C 95.648438 52.421875 95.648438 52.484375 95.652344 52.542969 L 95.847656 52.511719 L 96.039062 52.484375 C 96.039062 52.445312 96.039062 52.402344 96.039062 52.359375 L 96.039062 52.3125 C 96.058594 51.929688 96.125 51.554688 96.238281 51.1875 C 96.355469 50.847656 96.558594 50.566406 96.847656 50.34375 C 97.347656 49.976562 97.910156 49.792969 98.53125 49.796875 C 98.796875 49.792969 99.058594 49.832031 99.3125 49.90625 L 99.335938 49.828125 L 99.269531 49.875 L 99.3125 49.90625 L 99.335938 49.828125 L 99.269531 49.875 L 99.335938 49.828125 L 99.257812 49.828125 L 99.257812 49.875 L 99.324219 49.828125 L 99.261719 49.78125 L 99.261719 49.828125 L 99.339844 49.828125 L 99.277344 49.78125 L 99.34375 49.832031 L 99.34375 49.75 L 99.289062 49.78125 L 99.355469 49.832031 L 99.355469 49.75 C 98.957031 49.800781 98.554688 49.828125 98.152344 49.828125 C 96.804688 49.890625 95.601562 49.5 94.542969 48.664062 C 93.804688 47.984375 93.433594 47.140625 93.4375 46.136719 C 93.414062 45.730469 93.496094 45.34375 93.671875 44.980469 C 93.851562 44.613281 94.105469 44.316406 94.4375 44.078125 C 95.101562 43.644531 95.972656 43.578125 96.832031 43.558594 C 97.191406 43.558594 97.546875 43.558594 97.90625 43.558594 C 99.28125 43.558594 100.652344 43.625 102.023438 43.75 C 102.460938 43.785156 102.890625 43.859375 103.316406 43.96875 C 103.589844 44.03125 103.804688 44.179688 103.964844 44.40625 C 104.117188 44.617188 104.191406 44.847656 104.1875 45.109375 C 104.191406 45.578125 103.984375 45.925781 103.566406 46.148438 C 100.835938 47.628906 97.613281 48.121094 94.34375 48.121094 C 92.648438 48.109375 90.957031 48 89.273438 47.792969 C 88.84375 47.757812 88.421875 47.675781 88.011719 47.546875 C 87.625 47.429688 87.3125 47.210938 87.070312 46.890625 C 86.875 46.625 86.773438 46.328125 86.765625 46 C 86.773438 45.683594 86.878906 45.402344 87.078125 45.15625 C 87.28125 44.910156 87.539062 44.753906 87.851562 44.683594 C 87.976562 44.648438 88.109375 44.628906 88.242188 44.628906 C 88.597656 44.632812 88.921875 44.746094 89.203125 44.964844 C 89.488281 45.183594 89.707031 45.453125 89.855469 45.777344 C 90.050781 46.222656 90.144531 46.691406 90.132812 47.175781 C 90.132812 47.453125 90.109375 47.730469 90.070312 48.003906 C 89.910156 48.984375 89.589844 49.910156 89.101562 50.777344 C 88.613281 51.644531 87.988281 52.402344 87.230469 53.046875 C 86.484375 53.714844 85.644531 54.230469 84.714844 54.59375 C 83.78125 54.957031 82.8125 55.148438 81.8125 55.164062 L 81.621094 55.164062 C 81.34375 55.160156 81.082031 55.09375 80.839844 54.964844 C 80.632812 54.859375 80.472656 54.699219 80.363281 54.496094 C 80.265625 54.300781 80.21875 54.09375 80.222656 53.875 C 80.246094 53.367188 80.386719 52.894531 80.644531 52.453125 C 81.042969 51.714844 81.570312 51.082031 82.230469 50.5625 C 82.863281 50.042969 83.585938 49.773438 84.40625 49.753906 L 84.480469 49.753906 C 85.3125 49.808594 86.0625 50.082031 86.734375 50.566406 C 88.601562 51.808594 89.808594 53.90625 90.347656 56.105469 C 90.640625 57.351562 90.777344 58.617188 90.765625 59.898438 C 90.765625 60.898438 90.695312 61.902344 90.597656 62.90625 C 90.558594 63.789062 90.355469 64.632812 89.988281 65.433594 C 89.316406 66.714844 87.867188 67.496094 86.390625 67.738281 C 85.632812 67.867188 84.863281 67.933594 84.09375 67.9375 C 83.335938 67.949219 82.589844 67.863281 81.855469 67.683594 C 81.132812 67.503906 80.503906 67.15625 79.96875 66.640625 C 79.445312 66.132812 79.1875 65.515625 79.191406 64.785156 C 79.191406 64.738281 79.191406 64.683594 79.191406 64.632812 C 79.273438 63.726562 79.535156 62.871094 79.976562 62.074219 C 80.417969 61.277344 81 60.601562 81.726562 60.042969 C 83.21875 58.929688 84.886719 58.246094 86.734375 57.988281 C 87.511719 57.863281 88.289062 57.800781 89.074219 57.796875 C 91.714844 57.796875 94.339844 58.523438 96.367188 60.148438 C 97.359375 60.941406 98.140625 61.90625 98.707031 63.039062 C 99.273438 64.175781 99.574219 65.375 99.609375 66.640625 C 99.613281 67.5 99.457031 68.324219 99.140625 69.121094 C 98.808594 70.003906 98.265625 70.738281 97.519531 71.316406 C 96.457031 72.027344 95.289062 72.351562 94.011719 72.300781 L 93.976562 72.300781 C 91.667969 72.300781 89.292969 71.425781 87.902344 69.632812 C 87.179688 68.683594 86.820312 67.617188 86.820312 66.429688 C 86.785156 65.292969 87.144531 64.300781 87.90625 63.453125 C 88.667969 62.746094 89.539062 62.21875 90.523438 61.871094 C 92.351562 61.113281 94.230469 60.507812 96.160156 60.042969 C 97.605469 59.671875 99.070312 59.46875 100.5625 59.441406 C 101.488281 59.433594 102.398438 59.546875 103.292969 59.785156 C 104.78125 60.152344 105.953125 60.96875 106.804688 62.234375 C 107.570312 63.445312 107.941406 64.765625 107.914062 66.195312 C 107.90625 67.382812 107.6875 68.53125 107.257812 69.640625 C 106.242188 72.269531 104.117188 74.09375 101.578125 75.394531 C 99.039062 76.691406 96.09375 77.449219 93.480469 77.953125 C 91.550781 78.386719 89.601562 78.628906 87.628906 78.6875 C 86.65625 78.695312 85.695312 78.589844 84.746094 78.375 C 83.21875 78.003906 81.902344 77.257812 80.800781 76.140625 C 79.707031 75.03125 78.820312 73.773438 78.140625 72.371094 C 76.351562 68.835938 75.113281 64.71875 75.113281 60.691406 C 75.066406 57.757812 75.773438 55.019531 77.234375 52.46875 L 80.582031 46.800781 C 80.945312 46.230469 81.242188 45.628906 81.46875 44.996094 C 81.625 44.488281 81.703125 43.972656 81.699219 43.445312 C 81.683594 42.605469 81.542969 41.789062 81.273438 40.996094 C 81.210938 40.78125 81.125 40.578125 81.015625 40.382812 C 80.890625 40.160156 80.71875 39.988281 80.492188 39.867188 C 80.308594 39.765625 80.109375 39.71875 79.898438 39.722656 C 79.8125 39.722656 79.726562 39.730469 79.640625 39.746094 C 79.316406 39.816406 79.035156 39.960938 78.785156 40.175781 C 78.535156 40.386719 78.351562 40.648438 78.230469 40.953125 C 78.058594 41.363281 77.980469 41.792969 77.988281 42.238281 C 77.988281 42.410156 77.988281 42.582031 78.015625 42.753906 C 78.058594 43.429688 78.273438 44.046875 78.65625 44.609375 C 78.976562 44.996094 79.371094 45.292969 79.832031 45.496094 C 80.296875 45.699219 80.78125 45.792969 81.285156 45.773438 C 81.519531 45.773438 81.753906 45.753906 81.984375 45.714844 C 83.152344 45.507812 84.214844 44.882812 85.195312 44.261719 C 86.324219 43.539062 87.21875 42.546875 88.207031 41.722656 C 89.164062 40.972656 90.050781 40.144531 90.867188 39.242188 C 91.527344 38.464844 92.070312 37.613281 92.679688 36.832031 C 93.878906 35.257812 95.351562 34 97.097656 33.0625 C 98.652344 32.234375 100.308594 31.8125 102.074219 31.796875 C 102.289062 31.796875 102.507812 31.796875 102.726562 31.820312 C 103.300781 31.828125 103.851562 31.957031 104.371094 32.210938 C 104.960938 32.574219 105.40625 33.066406 105.710938 33.6875 C 106.226562 34.65625 106.488281 35.691406 106.488281 36.792969 C 106.488281 36.945312 106.488281 37.09375 106.488281 37.242188 C 106.488281 37.378906 106.457031 37.507812 106.394531 37.628906 C 106.324219 37.730469 106.230469 37.796875 106.113281 37.828125 C 105.972656 37.875 105.824219 37.902344 105.675781 37.910156 C 105.421875 37.933594 105.164062 37.941406 104.894531 37.941406 C 103.910156 37.953125 102.949219 37.820312 102.007812 37.539062 L 101.917969 37.539062 C 101.835938 37.535156 101.769531 37.566406 101.714844 37.625 C 101.65625 37.6875 101.628906 37.761719 101.636719 37.847656 C 101.648438 37.933594 101.6875 38 101.757812 38.050781 C 101.96875 38.179688 102.199219 38.238281 102.449219 38.226562 C 102.710938 38.21875 102.96875 38.191406 103.226562 38.152344 C 103.496094 38.136719 103.757812 38.078125 104.007812 37.976562 C 104.3125 37.84375 104.519531 37.621094 104.628906 37.3125 C 104.691406 37.152344 104.71875 36.984375 104.71875 36.8125 C 104.726562 36.664062 104.710938 36.515625 104.679688 36.371094 C 104.507812 35.871094 104.222656 35.445312 103.824219 35.09375 L 103.703125 34.972656 L 103.515625 35.113281 L 103.382812 35.207031 L 103.457031 35.355469 C 103.5625 35.550781 103.613281 35.757812 103.617188 35.976562 C 103.621094 36.171875 103.570312 36.347656 103.460938 36.507812 C 103.367188 36.652344 103.238281 36.75 103.070312 36.800781 C 103 36.820312 102.929688 36.832031 102.855469 36.835938 C 102.664062 36.832031 102.503906 36.757812 102.378906 36.617188 C 102.234375 36.46875 102.144531 36.292969 102.105469 36.089844 C 102.082031 35.980469 102.070312 35.871094 102.074219 35.761719 C 102.085938 35.457031 102.128906 35.160156 102.203125 34.867188 L 102.253906 34.632812 L 101.992188 34.632812 C 101.707031 34.636719 101.457031 34.734375 101.246094 34.925781 C 101.042969 35.109375 100.90625 35.332031 100.832031 35.597656 C 100.800781 35.722656 100.78125 35.851562 100.78125 35.984375 C 100.785156 36.289062 100.855469 36.578125 100.988281 36.851562 L 101.164062 36.769531 L 100.988281 36.851562 L 101.03125 36.832031 L 100.984375 36.832031 L 100.984375 36.851562 L 101.027344 36.832031 L 101.027344 36.800781 L 100.976562 36.855469 L 101.027344 36.855469 L 101.027344 36.800781 C 100.8125 36.765625 100.621094 36.683594 100.453125 36.542969 C 100.265625 36.390625 100.09375 36.214844 99.945312 36.023438 C 99.753906 35.773438 99.546875 35.542969 99.324219 35.324219 C 99.082031 35.085938 98.792969 34.9375 98.457031 34.882812 L 98.355469 34.882812 C 98.195312 34.882812 98.050781 34.925781 97.914062 35.007812 C 97.808594 35.070312 97.746094 35.164062 97.730469 35.289062 C 97.714844 35.414062 97.75 35.519531 97.835938 35.609375 C 97.914062 35.691406 98.011719 35.734375 98.125 35.734375 C 98.996094 35.734375 99.757812 35.234375 100.464844 34.957031 C 101.128906 34.695312 101.820312 34.566406 102.535156 34.570312 C 102.648438 34.570312 102.757812 34.570312 102.871094 34.570312 C 103.210938 34.566406 103.527344 34.652344 103.824219 34.820312 C 104.070312 34.996094 104.257812 35.222656 104.386719 35.492188 C 104.539062 35.773438 104.667969 36.097656 104.832031 36.402344 C 105.507812 37.515625 106.40625 38.410156 107.523438 39.082031 L 107.558594 39.027344 L 107.496094 39.027344 L 107.523438 39.082031 L 107.558594 39.027344 L 107.535156 38.96875 L 107.5 39.027344 L 107.558594 39.027344 L 107.535156 38.96875 L 107.507812 38.96875 L 107.535156 38.96875 C 106.8125 39.246094 106.195312 39.695312 105.550781 40 C 104.457031 40.492188 103.3125 40.71875 102.117188 40.683594 C 101.324219 40.675781 100.535156 40.617188 99.75 40.503906 C 98.433594 40.363281 97.160156 40.054688 95.925781 39.578125 C 93.953125 38.753906 92.265625 37.25 90.214844 36.386719 C 89.042969 35.898438 87.820312 35.636719 86.550781 35.605469 C 85.277344 35.570312 84.046875 35.769531 82.847656 36.199219 C 82.585938 36.289062 82.34375 36.417969 82.121094 36.585938 C 81.859375 36.78125 81.710938 37.039062 81.679688 37.363281 C 81.675781 37.410156 81.675781 37.457031 81.679688 37.503906 C 81.683594 37.898438 81.847656 38.214844 82.171875 38.449219 C 82.464844 38.667969 82.792969 38.789062 83.160156 38.8125 L 83.351562 38.8125 C 84.230469 38.769531 85.050781 38.535156 85.816406 38.113281 C 86.566406 37.707031 87.289062 37.257812 87.980469 36.761719 C 89.402344 35.757812 90.753906 34.667969 92.035156 33.488281 C 93.515625 32.1875 94.816406 30.726562 95.9375 29.109375 C 96.476562 28.378906 96.886719 27.585938 97.167969 26.726562 C 97.332031 26.152344 97.414062 25.566406 97.40625 24.96875 C 97.378906 23.921875 97.222656 22.898438 96.9375 21.894531 C 96.453125 20.042969 95.820312 18.242188 95.042969 16.492188 C 94.300781 14.839844 93.667969 13.039062 92.566406 11.523438 C 92.3125 11.128906 91.980469 10.8125 91.570312 10.582031 C 91.160156 10.351562 90.71875 10.230469 90.246094 10.21875 C 89.8125 10.222656 89.394531 10.308594 88.996094 10.476562 C 87.726562 11.039062 86.710938 11.898438 85.953125 13.0625 C 85.210938 14.179688 84.585938 15.359375 84.085938 16.605469 C 83.03125 19.101562 82.421875 21.703125 82.253906 24.40625 C 82.214844 24.976562 82.1875 25.570312 82.1875 26.164062 C 82.1875 27.828125 82.390625 29.550781 83.128906 31.042969 C 83.363281 31.546875 83.714844 31.949219 84.183594 32.246094 C 84.726562 32.53125 85.300781 32.660156 85.910156 32.636719 C 86.960938 32.679688 87.890625 32.371094 88.707031 31.714844 C 89.398438 31.042969 89.535156 30.0625 89.539062 29.203125 C 89.539062 29.105469 89.539062 29.011719 89.539062 28.917969 C 89.464844 26.730469 88.804688 24.625 88.296875 22.539062 C 87.910156 21.117188 87.695312 19.667969 87.65625 18.195312 C 87.652344 17.53125 87.71875 16.875 87.859375 16.226562 C 87.933594 15.855469 88.078125 15.515625 88.296875 15.207031 C 88.480469 14.925781 88.738281 14.78125 89.074219 14.765625 L 89.199219 14.765625 C 89.464844 14.796875 89.703125 14.898438 89.910156 15.0625 C 90.914062 15.929688 91.710938 16.953125 92.304688 18.132812 C 93.304688 19.941406 94.085938 21.835938 94.644531 23.824219 C 94.921875 24.699219 95.070312 25.59375 95.097656 26.511719 C 95.097656 26.730469 95.085938 26.949219 95.0625 27.164062 C 95.046875 27.679688 94.84375 28.113281 94.457031 28.457031 C 94.195312 28.613281 93.910156 28.707031 93.605469 28.730469 C 93.191406 28.789062 92.78125 28.820312 92.363281 28.820312 C 90.296875 28.820312 88.453125 28.183594 86.832031 26.910156 C 85.800781 26.089844 84.996094 25.089844 84.417969 23.90625 C 83.839844 22.726562 83.546875 21.476562 83.535156 20.164062 C 83.535156 19.984375 83.535156 19.808594 83.535156 19.632812 C 83.699219 17.140625 85.144531 14.996094 86.398438 12.824219 C 86.839844 11.945312 87.363281 11.109375 87.960938 10.324219 C 88.574219 9.652344 89.339844 9.332031 90.257812 9.367188 C 90.902344 9.371094 91.515625 9.5 92.105469 9.753906 C 92.96875 10.144531 93.503906 10.894531 93.949219 11.78125 C 94.390625 12.671875 94.726562 13.671875 95.210938 14.496094 C 96.207031 16.160156 97.164062 17.863281 98.128906 19.542969 C 98.515625 20.148438 98.8125 20.796875 99.019531 21.484375 C 99.074219 21.691406 99.105469 21.902344 99.117188 22.121094 L 99.3125 22.121094 L 99.117188 22.121094 L 99.117188 22.148438 C 99.121094 22.277344 99.074219 22.382812 98.980469 22.472656 C 98.890625 22.550781 98.785156 22.589844 98.667969 22.589844 C 98.480469 22.589844 98.351562 22.503906 98.277344 22.332031 C 98.128906 22.015625 98.03125 21.6875 97.988281 21.339844 C 97.976562 21.246094 97.96875 21.152344 97.96875 21.058594 C 97.957031 20.78125 98.027344 20.519531 98.175781 20.285156 C 98.332031 20.085938 98.523438 19.929688 98.75 19.8125 C 99.5 19.390625 100.304688 19.175781 101.167969 19.171875 C 101.574219 19.167969 101.972656 19.21875 102.367188 19.320312 C 103.246094 19.542969 104.089844 20.03125 105.058594 20.234375 C 105.371094 20.296875 105.691406 20.328125 106.007812 20.328125 C 107 20.308594 107.9375 20.078125 108.824219 19.636719 C 109.945312 19.050781 111.003906 18.363281 111.988281 17.570312 C 114.121094 15.988281 116.296875 14.46875 118.519531 13.015625 C 119.207031 12.613281 119.796875 12.09375 120.28125 11.464844 C 120.511719 11.121094 120.53125 10.769531 120.335938 10.40625 C 120.140625 10.042969 119.835938 9.863281 119.421875 9.863281 C 118.148438 9.871094 116.886719 10.015625 115.644531 10.292969 C 114.398438 10.566406 113.199219 10.972656 112.039062 11.503906 C 110.882812 12.035156 109.796875 12.679688 108.777344 13.445312 C 107.757812 14.207031 106.832031 15.066406 105.996094 16.027344 C 104.960938 17.160156 104.261719 18.46875 103.898438 19.957031 C 103.804688 20.433594 103.761719 20.914062 103.765625 21.398438 C 103.769531 21.886719 103.800781 22.378906 103.863281 22.863281 C 104.105469 24.875 104.691406 26.914062 105.96875 28.527344 C 106.546875 29.277344 107.253906 29.871094 108.09375 30.304688 C 108.933594 30.742188 109.828125 30.976562 110.777344 31.015625 C 110.988281 31.011719 111.203125 31 111.414062 30.972656 C 111.984375 30.910156 112.503906 30.710938 112.972656 30.378906 C 113.476562 29.957031 113.84375 29.4375 114.078125 28.824219 C 114.894531 26.914062 115.015625 24.824219 115.636719 22.921875 C 116.070312 21.660156 116.652344 20.46875 117.386719 19.347656 C 118.164062 18.097656 119.082031 16.902344 119.769531 15.558594 C 120.378906 14.4375 120.703125 13.242188 120.742188 11.96875 C 120.742188 11.691406 120.71875 11.417969 120.671875 11.148438 C 120.660156 10.929688 120.574219 10.742188 120.425781 10.585938 C 120.273438 10.460938 120.101562 10.40625 119.90625 10.414062 C 119.820312 10.417969 119.734375 10.425781 119.652344 10.433594 C 116.398438 10.867188 113.570312 13.003906 111.738281 15.671875 C 109.902344 18.34375 108.507812 21.34375 108.351562 24.597656 L 108.257812 26.617188 C 108.257812 26.75 108.242188 26.878906 108.207031 27.003906 C 108.183594 27.097656 108.132812 27.175781 108.054688 27.230469 C 108.003906 27.265625 107.945312 27.28125 107.886719 27.28125 C 107.734375 27.273438 107.625 27.203125 107.554688 27.070312 C 107.519531 27.003906 107.5 26.929688 107.5 26.855469 C 107.519531 26.566406 107.664062 26.367188 107.933594 26.257812 C 108.070312 26.199219 108.214844 26.171875 108.367188 26.175781 C 108.558594 26.179688 108.746094 26.210938 108.929688 26.273438 C 110.042969 26.621094 110.855469 27.625 111.605469 28.601562 C 112.40625 29.589844 113.109375 30.648438 113.710938 31.769531 C 113.980469 32.277344 114.128906 32.8125 114.15625 33.386719 C 114.164062 33.710938 114.078125 34.011719 113.90625 34.285156 C 113.792969 34.445312 113.671875 34.59375 113.539062 34.738281 C 113.382812 34.902344 113.265625 35.089844 113.179688 35.300781 C 113.140625 35.429688 113.125 35.558594 113.125 35.691406 C 113.125 35.882812 113.113281 36.074219 113.089844 36.265625 C 113.078125 36.320312 113.058594 36.375 113.03125 36.421875 C 113.011719 36.449219 112.984375 36.46875 112.949219 36.472656 L 112.988281 36.664062 L 113.164062 36.578125 C 113.128906 36.5 113.113281 36.417969 113.113281 36.335938 C 113.113281 36.210938 113.144531 36.097656 113.207031 35.992188 C 113.265625 35.894531 113.347656 35.832031 113.457031 35.800781 L 113.539062 35.800781 C 113.574219 35.792969 113.605469 35.792969 113.640625 35.800781 C 113.714844 35.832031 113.769531 35.886719 113.796875 35.960938 C 113.839844 36.0625 113.867188 36.164062 113.878906 36.273438 C 113.910156 36.476562 113.929688 36.683594 113.933594 36.890625 C 113.941406 37.15625 113.882812 37.40625 113.753906 37.636719 C 113.652344 37.8125 113.503906 37.929688 113.308594 37.992188 C 113.253906 38.007812 113.199219 38.015625 113.144531 38.015625 C 112.976562 38.011719 112.835938 37.949219 112.722656 37.824219 C 112.59375 37.691406 112.503906 37.539062 112.453125 37.363281 C 112.394531 37.144531 112.363281 36.925781 112.367188 36.699219 C 112.367188 36.417969 112.402344 36.140625 112.480469 35.867188 C 112.542969 35.628906 112.660156 35.421875 112.832031 35.246094 C 113.105469 35.03125 113.417969 34.925781 113.765625 34.925781 C 113.921875 34.917969 114.066406 34.953125 114.199219 35.035156 C 114.308594 35.113281 114.359375 35.222656 114.351562 35.359375 L 114.351562 35.40625 C 114.296875 36.335938 114.242188 37.257812 114.183594 38.183594 C 114.160156 38.609375 114.074219 39.09375 114.074219 39.582031 C 114.054688 40.039062 114.164062 40.460938 114.410156 40.851562 C 115.367188 42.261719 116.710938 43.507812 117.792969 44.78125 C 118.363281 45.394531 118.855469 46.066406 119.269531 46.792969 C 119.566406 47.34375 119.726562 47.929688 119.742188 48.554688 C 119.742188 48.742188 119.722656 48.929688 119.683594 49.113281 C 119.632812 49.425781 119.496094 49.691406 119.269531 49.914062 L 119.222656 49.957031 L 119.269531 49.914062 C 119.027344 50.09375 118.761719 50.210938 118.464844 50.269531 C 118.121094 50.335938 117.792969 50.457031 117.488281 50.625 C 117.382812 50.691406 117.328125 50.785156 117.332031 50.910156 C 117.328125 51.039062 117.386719 51.140625 117.5 51.203125 C 117.542969 51.234375 117.589844 51.253906 117.640625 51.269531 C 117.679688 51.277344 117.714844 51.277344 117.75 51.269531 C 117.859375 51.269531 117.953125 51.234375 118.027344 51.15625 C 118.105469 51.082031 118.140625 50.988281 118.140625 50.882812 L 117.964844 50.882812 L 118.140625 50.882812 L 117.964844 50.882812 L 118.140625 50.882812 C 118.136719 50.65625 118.074219 50.445312 117.949219 50.253906 C 117.765625 49.996094 117.53125 49.796875 117.25 49.652344 C 116.984375 49.503906 116.703125 49.386719 116.46875 49.265625 C 115.921875 49.023438 115.523438 48.636719 115.261719 48.101562 C 115.207031 47.996094 115.171875 47.886719 115.164062 47.769531 L 115.164062 47.675781 C 115.207031 47.578125 115.269531 47.492188 115.351562 47.425781 C 115.894531 46.878906 116.550781 46.589844 117.324219 46.550781 L 117.6875 46.550781 C 118.121094 46.546875 118.546875 46.5625 118.976562 46.601562 C 119.210938 46.621094 119.441406 46.675781 119.660156 46.761719 C 119.867188 46.835938 120.035156 46.96875 120.160156 47.148438 C 120.285156 47.371094 120.339844 47.605469 120.324219 47.859375 C 120.324219 48 120.324219 48.144531 120.304688 48.285156 C 120.296875 48.359375 120.289062 48.433594 120.273438 48.503906 C 120.261719 48.554688 120.238281 48.597656 120.203125 48.636719 C 120.171875 48.667969 120.089844 48.703125 119.984375 48.789062 C 119.90625 48.863281 119.847656 48.953125 119.816406 49.054688 C 119.789062 49.144531 119.773438 49.238281 119.777344 49.335938 C 119.777344 49.539062 119.824219 49.722656 119.832031 49.894531 L 119.832031 49.957031 C 119.824219 50.214844 119.746094 50.449219 119.597656 50.65625 C 119.4375 50.882812 119.242188 51.0625 119.007812 51.203125 C 118.425781 51.5 117.816406 51.714844 117.179688 51.855469 C 117.035156 51.898438 116.914062 51.976562 116.816406 52.089844 C 116.734375 52.191406 116.675781 52.304688 116.636719 52.425781 C 116.617188 52.5 116.582031 52.570312 116.53125 52.628906 C 115.839844 53.300781 115.011719 53.613281 114.046875 53.566406 C 113.9375 53.566406 113.832031 53.566406 113.730469 53.566406 C 112.671875 53.4375 111.644531 53.1875 110.648438 52.816406 C 108.585938 52.175781 106.484375 51.734375 104.339844 51.488281 C 103.753906 51.414062 103.167969 51.378906 102.578125 51.371094 L 102.484375 51.371094 C 100.496094 51.449219 98.589844 51.878906 96.761719 52.65625 C 96.621094 52.722656 96.476562 52.761719 96.324219 52.773438 C 96.265625 52.773438 96.214844 52.761719 96.164062 52.734375 C 96.074219 52.664062 96.023438 52.574219 96.015625 52.460938 Z M 95.859375 52.527344 " fill-opacity="1" fill-rule="nonzero"/></g><g fill="#ffffff" fill-opacity="1"><g transform="translate(18.097408, 103.55203)"><g><path d="M 1.5 0 L 1.5 -14.40625 L 4.3125 -14.40625 L 4.3125 -7.5625 L 10.359375 -14.421875 L 13.453125 -14.421875 L 7.921875 -8.03125 L 13.796875 0 L 10.640625 0 L 6.15625 -6.234375 L 4.3125 -4.3125 L 4.3125 0 Z M 1.5 0 "/></g></g></g><g fill="#ffffff" fill-opacity="1"><g transform="translate(31.683227, 103.55203)"><g><path d="M 7.59375 -2.375 C 8.257812 -2.375 8.816406 -2.507812 9.265625 -2.78125 C 9.722656 -3.050781 10.085938 -3.398438 10.359375 -3.828125 C 10.640625 -4.265625 10.835938 -4.765625 10.953125 -5.328125 C 11.066406 -5.890625 11.125 -6.46875 11.125 -7.0625 L 11.125 -14.421875 L 13.921875 -14.421875 L 13.921875 -7.0625 C 13.921875 -6.082031 13.800781 -5.15625 13.5625 -4.28125 C 13.320312 -3.414062 12.945312 -2.65625 12.4375 -2 C 11.9375 -1.351562 11.285156 -0.835938 10.484375 -0.453125 C 9.679688 -0.078125 8.726562 0.109375 7.625 0.109375 C 6.46875 0.109375 5.484375 -0.0859375 4.671875 -0.484375 C 3.867188 -0.890625 3.21875 -1.421875 2.71875 -2.078125 C 2.21875 -2.734375 1.851562 -3.492188 1.625 -4.359375 C 1.40625 -5.234375 1.296875 -6.132812 1.296875 -7.0625 L 1.296875 -14.421875 L 4.109375 -14.421875 L 4.109375 -7.0625 C 4.109375 -6.457031 4.164062 -5.875 4.28125 -5.3125 C 4.394531 -4.75 4.585938 -4.25 4.859375 -3.8125 C 5.140625 -3.382812 5.503906 -3.035156 5.953125 -2.765625 C 6.398438 -2.503906 6.945312 -2.375 7.59375 -2.375 Z M 7.59375 -2.375 "/></g></g></g><g fill="#ffffff" fill-opacity="1"><g transform="translate(46.913964, 103.55203)"><g><path d="M 1.5 0 L 1.5 -14.421875 L 7.875 -14.421875 C 8.539062 -14.421875 9.15625 -14.28125 9.71875 -14 C 10.28125 -13.726562 10.765625 -13.363281 11.171875 -12.90625 C 11.578125 -12.457031 11.894531 -11.941406 12.125 -11.359375 C 12.351562 -10.785156 12.46875 -10.207031 12.46875 -9.625 C 12.46875 -8.695312 12.234375 -7.847656 11.765625 -7.078125 C 11.304688 -6.316406 10.675781 -5.765625 9.875 -5.421875 L 13.15625 0 L 10.015625 0 L 7.0625 -4.828125 L 4.3125 -4.828125 L 4.3125 0 Z M 4.3125 -7.296875 L 7.828125 -7.296875 C 8.078125 -7.296875 8.3125 -7.351562 8.53125 -7.46875 C 8.757812 -7.59375 8.953125 -7.757812 9.109375 -7.96875 C 9.273438 -8.175781 9.40625 -8.421875 9.5 -8.703125 C 9.601562 -8.992188 9.65625 -9.300781 9.65625 -9.625 C 9.65625 -9.96875 9.597656 -10.28125 9.484375 -10.5625 C 9.378906 -10.84375 9.234375 -11.085938 9.046875 -11.296875 C 8.867188 -11.515625 8.660156 -11.679688 8.421875 -11.796875 C 8.179688 -11.910156 7.941406 -11.96875 7.703125 -11.96875 L 4.3125 -11.96875 Z M 4.3125 -7.296875 "/></g></g></g><g fill="#ffffff" fill-opacity="1"><g transform="translate(60.418548, 103.55203)"><g><path d="M 5.609375 -14.421875 L 8.078125 -14.421875 L 13.5625 0 L 10.6875 0 L 9.34375 -3.59375 L 4.3125 -3.59375 L 2.984375 0 L 0.109375 0 Z M 8.84375 -5.5625 L 6.84375 -11.234375 L 4.78125 -5.5625 Z M 8.84375 -5.5625 "/></g></g></g><g fill="#ffffff" fill-opacity="1"><g transform="translate(74.065291, 103.55203)"><g><path d="M 13.265625 0 L 13.265625 -9.546875 L 9.546875 -2.4375 L 8.03125 -2.4375 L 4.3125 -9.546875 L 4.3125 0 L 1.5 0 L 1.5 -14.421875 L 4.515625 -14.421875 L 8.78125 -6.21875 L 13.078125 -14.421875 L 16.0625 -14.421875 L 16.0625 0 Z M 13.265625 0 "/></g></g></g><g fill="#ffffff" fill-opacity="1"><g transform="translate(91.631414, 103.55203)"><g><path d="M 5.609375 -14.421875 L 8.078125 -14.421875 L 13.5625 0 L 10.6875 0 L 9.34375 -3.59375 L 4.3125 -3.59375 L 2.984375 0 L 0.109375 0 Z M 8.84375 -5.5625 L 6.84375 -11.234375 L 4.78125 -5.5625 Z M 8.84375 -5.5625 "/></g></g></g><g fill="#ffffff" fill-opacity="1"><g transform="translate(105.278157, 103.55203)"><g/></g></g><g fill="#ffffff" fill-opacity="1"><g transform="translate(110.151999, 103.55203)"><g><path d="M 4.3125 -9.25 L 4.3125 0 L 1.5 0 L 1.5 -14.421875 L 3.671875 -14.421875 L 11.1875 -4.953125 L 11.1875 -14.40625 L 14 -14.40625 L 14 0 L 11.71875 0 Z M 4.3125 -9.25 "/></g></g></g><g fill="#ffffff" fill-opacity="1"><g transform="translate(125.646741, 103.55203)"><g><path d="M 5.609375 -14.421875 L 8.078125 -14.421875 L 13.5625 0 L 10.6875 0 L 9.34375 -3.59375 L 4.3125 -3.59375 L 2.984375 0 L 0.109375 0 Z M 8.84375 -5.5625 L 6.84375 -11.234375 L 4.78125 -5.5625 Z M 8.84375 -5.5625 "/></g></g></g><g fill="#ffffff" fill-opacity="1"><g transform="translate(139.293484, 103.55203)"><g><path d="M 1.5 0 L 1.5 -14.421875 L 4.3125 -14.421875 L 4.3125 0 Z M 1.5 0 "/></g></g></g><g fill="#ffffff" fill-opacity="1"><g transform="translate(145.101476, 103.55203)"><g><path d="M 1.5 0 L 1.5 -14.421875 L 4.3125 -14.421875 L 4.3125 -2.453125 L 11.65625 -2.453125 L 11.65625 0 Z M 1.5 0 "/></g></g></g><g fill="#ffffff" fill-opacity="1"><g transform="translate(156.961143, 103.55203)"><g><path d="M 10.09375 -10.640625 C 10 -10.734375 9.828125 -10.863281 9.578125 -11.03125 C 9.328125 -11.195312 9.019531 -11.351562 8.65625 -11.5 C 8.300781 -11.65625 7.910156 -11.785156 7.484375 -11.890625 C 7.066406 -12.003906 6.644531 -12.0625 6.21875 -12.0625 C 5.445312 -12.0625 4.867188 -11.921875 4.484375 -11.640625 C 4.109375 -11.359375 3.921875 -10.957031 3.921875 -10.4375 C 3.921875 -10.144531 3.988281 -9.898438 4.125 -9.703125 C 4.269531 -9.503906 4.476562 -9.328125 4.75 -9.171875 C 5.019531 -9.023438 5.363281 -8.890625 5.78125 -8.765625 C 6.195312 -8.648438 6.675781 -8.523438 7.21875 -8.390625 C 7.914062 -8.203125 8.550781 -8 9.125 -7.78125 C 9.707031 -7.5625 10.195312 -7.289062 10.59375 -6.96875 C 10.988281 -6.644531 11.296875 -6.253906 11.515625 -5.796875 C 11.734375 -5.347656 11.84375 -4.789062 11.84375 -4.125 C 11.84375 -3.351562 11.695312 -2.691406 11.40625 -2.140625 C 11.113281 -1.597656 10.71875 -1.15625 10.21875 -0.8125 C 9.726562 -0.476562 9.160156 -0.234375 8.515625 -0.078125 C 7.878906 0.078125 7.207031 0.15625 6.5 0.15625 C 5.414062 0.15625 4.34375 -0.00390625 3.28125 -0.328125 C 2.226562 -0.648438 1.285156 -1.109375 0.453125 -1.703125 L 1.6875 -4.125 C 1.8125 -4 2.03125 -3.835938 2.34375 -3.640625 C 2.664062 -3.453125 3.039062 -3.257812 3.46875 -3.0625 C 3.90625 -2.863281 4.382812 -2.695312 4.90625 -2.5625 C 5.4375 -2.425781 5.984375 -2.359375 6.546875 -2.359375 C 8.085938 -2.359375 8.859375 -2.851562 8.859375 -3.84375 C 8.859375 -4.15625 8.769531 -4.414062 8.59375 -4.625 C 8.414062 -4.84375 8.164062 -5.03125 7.84375 -5.1875 C 7.519531 -5.351562 7.125 -5.503906 6.65625 -5.640625 C 6.195312 -5.773438 5.6875 -5.925781 5.125 -6.09375 C 4.425781 -6.28125 3.820312 -6.484375 3.3125 -6.703125 C 2.8125 -6.929688 2.390625 -7.195312 2.046875 -7.5 C 1.710938 -7.8125 1.457031 -8.164062 1.28125 -8.5625 C 1.113281 -8.957031 1.03125 -9.4375 1.03125 -10 C 1.03125 -10.726562 1.164062 -11.375 1.4375 -11.9375 C 1.707031 -12.507812 2.082031 -12.984375 2.5625 -13.359375 C 3.050781 -13.742188 3.613281 -14.035156 4.25 -14.234375 C 4.882812 -14.429688 5.566406 -14.53125 6.296875 -14.53125 C 7.316406 -14.53125 8.25 -14.367188 9.09375 -14.046875 C 9.945312 -13.722656 10.691406 -13.347656 11.328125 -12.921875 Z M 10.09375 -10.640625 "/></g></g></g></svg>