<svg xmlns="http://www.w3.org/2000/svg" xmlns:xlink="http://www.w3.org/1999/xlink" width="150" zoomAndPan="magnify" viewBox="0 0 112.5 112.499997" height="150" preserveAspectRatio="xMidYMid meet" version="1.0"><defs><g/></defs><g fill="#000000" fill-opacity="1"><g transform="translate(9.437021, 62.375802)"><g><path d="M 2.671875 -20.550781 L 12.730469 0 L 13.984375 0 L 24.046875 -20.550781 L 24.046875 0 L 25.070312 0 L 25.070312 -22.726562 L 24.011719 -22.726562 L 13.359375 -0.921875 L 2.671875 -22.726562 L 1.648438 -22.726562 L 1.648438 0 L 2.671875 0 Z M 2.671875 -20.550781 "/></g></g></g><g fill="#000000" fill-opacity="1"><g transform="translate(36.154909, 62.375802)"><g><path d="M 17.84375 -9.53125 C 17.84375 -14.679688 14.28125 -16.824219 10.058594 -16.824219 C 4.386719 -16.824219 0.859375 -13.425781 0.859375 -8.34375 C 0.859375 -3.296875 4.550781 0.132812 10.226562 0.132812 C 15.105469 0.132812 17.480469 -1.351562 17.480469 -1.351562 L 17.183594 -2.109375 C 17.183594 -2.109375 14.480469 -0.691406 10.324219 -0.691406 C 6.003906 -0.691406 2.242188 -3.199219 1.914062 -7.683594 L 17.714844 -7.621094 C 17.714844 -7.621094 17.84375 -8.808594 17.84375 -9.53125 Z M 10.125 -16.03125 C 13.722656 -16.03125 17.351562 -14.117188 16.789062 -8.476562 L 1.878906 -8.476562 C 1.945312 -13.292969 5.542969 -16.03125 10.125 -16.03125 Z M 10.125 -16.03125 "/></g></g></g><g fill="#000000" fill-opacity="1"><g transform="translate(54.824449, 62.375802)"><g><path d="M 1.683594 0 L 2.671875 0 L 2.671875 -22.757812 L 1.683594 -22.695312 Z M 1.683594 0 "/></g></g></g><g fill="#000000" fill-opacity="1"><g transform="translate(59.145492, 62.375802)"><g><path d="M 2.9375 -21.40625 C 2.9375 -21.835938 2.574219 -22.164062 2.144531 -22.164062 C 1.714844 -22.164062 1.386719 -21.835938 1.386719 -21.40625 C 1.386719 -20.980469 1.714844 -20.617188 2.144531 -20.617188 C 2.574219 -20.617188 2.9375 -20.980469 2.9375 -21.40625 Z M 1.648438 0 L 2.671875 0 L 2.671875 -16.425781 L 1.648438 -16.359375 Z M 1.648438 0 "/></g></g></g><g fill="#000000" fill-opacity="1"><g transform="translate(63.466534, 62.375802)"><g><path d="M 1.648438 0 L 2.671875 0 L 2.671875 -13.523438 C 5.839844 -15.207031 8.445312 -16.03125 10.589844 -16.03125 C 15.304688 -16.03125 18.175781 -14.152344 18.175781 -9.136719 L 18.175781 0 L 19.199219 0 L 19.199219 -9.136719 C 19.199219 -14.316406 16.230469 -16.824219 10.949219 -16.824219 C 7.851562 -16.824219 5.015625 -15.734375 2.574219 -14.347656 L 2.175781 -16.394531 L 1.648438 -16.359375 Z M 1.648438 0 "/></g></g></g><g fill="#000000" fill-opacity="1"><g transform="translate(84.346073, 62.375802)"><g><path d="M 9.761719 -18.503906 L 10.421875 -18.503906 L 13.0625 -22.957031 L 11.839844 -22.957031 Z M 17.84375 -9.53125 C 17.84375 -14.679688 14.28125 -16.824219 10.058594 -16.824219 C 4.386719 -16.824219 0.859375 -13.425781 0.859375 -8.34375 C 0.859375 -3.296875 4.550781 0.132812 10.226562 0.132812 C 15.105469 0.132812 17.480469 -1.351562 17.480469 -1.351562 L 17.183594 -2.109375 C 17.183594 -2.109375 14.480469 -0.691406 10.324219 -0.691406 C 6.003906 -0.691406 2.242188 -3.199219 1.914062 -7.683594 L 17.714844 -7.621094 C 17.714844 -7.621094 17.84375 -8.808594 17.84375 -9.53125 Z M 10.125 -16.03125 C 13.722656 -16.03125 17.351562 -14.117188 16.789062 -8.476562 L 1.878906 -8.476562 C 1.945312 -13.292969 5.542969 -16.03125 10.125 -16.03125 Z M 10.125 -16.03125 "/></g></g></g></svg>